<?xml version="1.0" standalone="no"?><!DOCTYPE svg PUBLIC "-//W3C//DTD SVG 1.1//EN" "http://www.w3.org/Graphics/SVG/1.1/DTD/svg11.dtd"><svg t="1755761736417" class="icon" viewBox="0 0 1024 1024" version="1.1" xmlns="http://www.w3.org/2000/svg" p-id="10649" width="16" height="16" xmlns:xlink="http://www.w3.org/1999/xlink"><path d="M512 471.04m-465.92 0a465.92 465.92 0 1 0 931.84 0 465.92 465.92 0 1 0-931.84 0Z" fill="#e7fccb" p-id="10650"></path><path d="M512 10.24A460.8 460.8 0 1 1 51.2 471.04 461.2096 461.2096 0 0 1 512 10.24m0-10.24a471.04 471.04 0 1 0 471.04 471.04A471.04 471.04 0 0 0 512 0z" fill="#FFFFFF" p-id="10651"></path><path d="M512 1013.76l267.8784-368.64H244.1216L512 1013.76z" fill="#36ab60" p-id="10652"></path><path d="M512 471.04m-296.96 0a296.96 296.96 0 1 0 593.92 0 296.96 296.96 0 1 0-593.92 0Z" fill="#36ab60" p-id="10653" data-spm-anchor-id="a313x.search_index.0.i4.40213a815MgLx9" class="selected"></path><path d="M512 215.04A256 256 0 1 1 256 471.04 256.4096 256.4096 0 0 1 512 215.04m0-81.92A337.92 337.92 0 1 0 849.92 471.04 337.92 337.92 0 0 0 512 133.12z" fill="#FFFFFF" p-id="10654" data-spm-anchor-id="a313x.search_index.0.i0.40213a815MgLx9"></path></svg>